HIERARCHY
ROOT Hips
{
	OFFSET	0.00	0.00	0.00
	CHANNELS 6 Xposition Yposition Zposition Zrotation Xrotation Yrotation
	JOINT Spine
	{
		OFFSET	 0.00	0.01	 0.00
		CHANNELS 3 Zrotation Xrotation Yrotation
		JOINT Spine1
		{
			OFFSET	 0.00	 2.45913012437421	 0.00
			CHANNELS 3 Zrotation Xrotation Yrotation
            JOINT Neck
            {
                OFFSET	 0.00	 2.48462964506057	 0.00
                CHANNELS 3 Zrotation Xrotation Yrotation
                JOINT Head
                {
                    OFFSET	 0.00	 0.927524780924562	 0.00
                    CHANNELS 3 Zrotation Xrotation Yrotation
                    End Site 
                    {
                        OFFSET	 0.00	 1.14999962169752	 0.00
                    }
                }
            }
			JOINT LeftShoulder
			{
				OFFSET	 0.00	 2.48462964506057	 0.00
				CHANNELS 3 Zrotation Xrotation Yrotation
				JOINT LeftUpArm
				{
					OFFSET	 0.00	 1.24881979654096	 0.00
					CHANNELS 3 Zrotation Xrotation Yrotation
					JOINT LeftForeArm
					{
						OFFSET	 0.00	2.59758046908119	 0.00
						CHANNELS 3 Zrotation Xrotation Yrotation
						JOINT LeftHand
						{
							OFFSET	 0.00	2.45542024364365	 0.00
							CHANNELS 3 Zrotation Xrotation Yrotation
							JOINT LeftHandThumb 
							{
								OFFSET	 0.00	0.00	 0.00
								CHANNELS 3 Zrotation Xrotation Yrotation
								End Site
								{
									OFFSET	 0.00	0.00	1.00000003353624
								}
							}
							JOINT L_Wrist_End 
							{
								OFFSET	 0.00	0.99999967115358	 0.00
								CHANNELS 3 Zrotation Xrotation Yrotation
								End Site 
								{
									OFFSET	 0.00	 0.00	 0.00
								}
							}
						}
					}
				}
			}
			JOINT RightShoulder
			{
				OFFSET	 0.00	 2.48462964506057	 0.00
				CHANNELS 3 Zrotation Xrotation Yrotation
				JOINT RightUpArm
				{
					OFFSET	 0.00	 1.24881979654096	 0.00
					CHANNELS 3 Zrotation Xrotation Yrotation
					JOINT RightForeArm
					{
						OFFSET	 0.00	2.59758046908119	 0.00
						CHANNELS 3 Zrotation Xrotation Yrotation
						JOINT RightHand
						{
							OFFSET	 0.00	2.45542024364365	 0.00
							CHANNELS 3 Zrotation Xrotation Yrotation
							JOINT RightHandThumb 
							{
								OFFSET	 0.00	0.00	 0.00
								CHANNELS 3 Zrotation Xrotation Yrotation
								End Site
								{
									OFFSET	 0.00	0.00	1.00000003353624
								}
							}
							JOINT R_Wrist_End 
							{
								OFFSET	 0.00	0.99999967115358	 0.00
								CHANNELS 3 Zrotation Xrotation Yrotation
								End Site 
								{
									OFFSET	 0.00	 0.00	 0.00
								}
							}
						}
					}
				}
			}
		}
	}
	JOINT LeftUpLeg
	{
		OFFSET	 1.2719394002717	 0.00	 0.00
		CHANNELS 3 Zrotation Xrotation Yrotation
		JOINT LeftLowLeg
		{
			OFFSET	 0.00	-4.3429100912261	 0.00
			CHANNELS 3 Zrotation Xrotation Yrotation
			JOINT LeftFoot
			{
				OFFSET	 0.00	-4.48767017425826	 0.00
				CHANNELS 3 Zrotation Xrotation Yrotation
				JOINT LeftToeBase
                {
                    OFFSET	 0.00	0.00	 1.51507020887566
                    CHANNELS 3 Zrotation Xrotation Yrotation
                    End Site 
                    {
                        OFFSET	 0.00	0.00	 0.75000010571191
                    }
                }
			}
		}
	}
	JOINT RightUpLeg
	{
		OFFSET	 -1.2719393604653	 0.00	 0.00
		CHANNELS 3 Zrotation Xrotation Yrotation
		JOINT RightLowLeg
		{
			OFFSET	 0.00	-4.3429100912261	 0.00
			CHANNELS 3 Zrotation Xrotation Yrotation
			JOINT RightFoot
			{
				OFFSET	 0.00	-4.48767017425826	 0.00
				CHANNELS 3 Zrotation Xrotation Yrotation
				JOINT RightToeBase
                {
                    OFFSET	 0.00	0.00	 1.51507020887566
                    CHANNELS 3 Zrotation Xrotation Yrotation
                    End Site 
                    {
                        OFFSET	 0.00	0.00	 0.749999965609858
                    }
                }   
			}
		}
	}
}
MOTION 
Frames:	10 
Frame Time: 0.02 
 1.5273699951171875 3.88010986328125 9.399509887695313 -154.625 79.3784 518.142 1.31702 -8.18948 -0.8299 6.00499 -6.99746 -0.410992 -12.4159 75.9326 362.581 60.7069 -75.7361 762.031 -112.9445 -9.85276 -14.3659 11.6757 12.2872 -25.2917 0.0 5.03672 0.0 27.6449 -6.27571 23.8015 0.0 0.0 0.0 0.0 0.0 0.0 108.7852 -3.62373 -354.254 -6.9911 -1.46236 65.2075 0.0 14.3371 0.0 -24.8058 -9.96663 -41.8549 0.0 0.0 0.0 0.0 0.0 0.0 2.78333 -8.02398 0.680746 0.0 6.24728 0.0 -15.414 2.0147 7.25482 0.0 -30.097 0.0 8.45967 -8.26253 6.05639 0.0 7.57557 0.0 12.009 6.4441605 -18.9792 0.0 -31.7038 0.0 
  1.534320068359375 3.876669921875 9.399400024414062 -154.405 79.3569 517.97 1.32923 -8.28921 -0.922513 5.96806 -6.93257 -0.512101 -11.8842 76.2201 361.976 60.8091 -75.6492 762.223 -112.9125 -9.90939 -14.3623 11.5924 12.0518 -25.4076 0.0 5.23298 0.0 27.3438 -6.52703 23.9341 0.0 0.0 0.0 0.0 0.0 0.0 108.827805 -3.7105 -354.144 -7.00112 -1.51163 65.3943 0.0 14.3523 0.0 -24.6193 -10.2303 -42.0063 0.0 0.0 0.0 0.0 0.0 0.0 2.78201 -7.94547 0.632736 0.0 6.11468 0.0 -15.4276 2.0200996 7.25128 0.0 -30.0373 0.0 8.45355 -8.23913 5.81758 0.0 7.55963 0.0 11.9685 6.4767904 -18.8645 0.0 -31.6272 0.0 
  1.542010040283203 3.8721099853515626 9.39927001953125 -154.343 79.3231 517.92 1.30758 -8.41333 -0.976092 5.97984 -6.89159 -0.565073 -11.2972 76.519 361.288 60.8661 -75.5852 762.335 -112.9763 -9.92488 -14.3888 11.6035 12.0045 -25.3458 0.0 5.11789 0.0 27.264 -6.54644 23.9367 0.0 0.0 0.0 0.0 0.0 0.0 108.8412 -3.82916 -353.904 -7.02013 -1.56295 65.2147 0.0 14.2823 0.0 -24.6775 -10.2304 -41.9547 0.0 0.0 0.0 0.0 0.0 0.0 2.75717 -7.88062 0.633495 0.0 5.99353 0.0 -15.3905 2.0361004 7.2709 0.0 -29.971199 0.0 8.43031 -8.18928 5.78627 0.0 7.46604 0.0 11.9753 6.49271 -18.889 0.0 -31.6096 0.0 
  1.5495100402832032 3.865880126953125 9.39916015625 -154.251 79.2936 517.882 1.28277 -8.56651 -1.05107 5.97202 -6.80994 -0.641619 -10.6384 76.8026 360.545 61.0435 -75.5059 762.63 -113.0113 -9.98579 -14.391 11.5707 11.9587 -25.3127 0.0 5.10729 0.0 27.1565 -6.57577 23.8706 0.0 0.0 0.0 0.0 0.0 0.0 108.8602 -3.96845 -353.771 -6.99676 -1.57857 65.3692 0.0 14.2895 0.0 -24.7655 -10.2225 -42.1098 0.0 0.0 0.0 0.0 0.0 0.0 2.73725 -7.81367 0.705361 0.0 5.88281 0.0 -15.3585 2.0797005 7.1797 0.0 -29.9946 0.0 8.40989 -8.10367 5.91328 0.0 7.3435 0.0 12.0531 6.4521 -19.0623 0.0 -31.5222 0.0 
  1.5555900573730468 3.858009948730469 9.399249877929687 -154.14 79.2612 517.86 1.2398 -8.78398 -1.13076 5.9689 -6.65747 -0.723635 -10.165 77.0627 360.018 61.1945 -75.4326 762.816 -112.9932 -10.0321 -14.3668 11.4576 11.9225 -25.2835 0.0 5.13861 0.0 27.0851 -6.66561 23.8139 0.0 0.0 0.0 0.0 0.0 0.0 108.8757 -4.01819 -353.631 -6.96358 -1.76946 65.2552 0.0 14.3342 0.0 -24.8904 -10.408 -41.8743 0.0 0.0 0.0 0.0 0.0 0.0 2.72544 -7.74609 0.707229 0.0 5.78314 0.0 -15.3463 2.1018 7.10644 0.0 -29.9161 0.0 8.39635 -8.05394 5.74323 0.0 7.29996 0.0 12.011 6.45529 -19.0479 0.0 -31.3984 0.0 
  1.5623800659179687 3.85072998046875 9.399169921875 -153.875 79.2491 517.7 1.22632 -8.9201 -1.21358 5.96305 -6.6047 -0.808664 -9.8061 77.3267 359.618 61.3167 -75.3683 762.932 -113.0347 -10.073 -14.2763 11.4272 11.915 -25.4097 0.0 5.11041 0.0 27.0391 -6.6845 23.8543 0.0 0.0 0.0 0.0 0.0 0.0 108.9225 -4.1109 -353.596 -7.00916 -1.8816 65.2405 0.0 14.2919 0.0 -24.9906 -10.3908 -42.1516 0.0 0.0 0.0 0.0 0.0 0.0 2.70048 -7.63208 0.254724 0.0 5.64059 0.0 -15.3615 2.0151997 7.466 0.0 -29.8116 0.0 8.41873 -7.93432 5.93732 0.0 7.17668 0.0 12.0251 6.4135904 -19.4055 0.0 -31.2299 0.0 
  1.568699951171875 3.840830078125 9.398579711914062 -153.701 79.2813 517.598 1.16579 -9.10061 -1.28589 5.97759 -6.45854 -0.878466 -9.38255 77.5584 359.138 61.3599 -75.3138 763.01 -113.0598 -10.0844 -14.322 11.3566 11.9237 -25.5574 0.0 5.09536 0.0 26.9753 -6.75585 24.0353 0.0 0.0 0.0 0.0 0.0 0.0 108.9155 -4.22465 -353.467 -7.00775 -1.94103 65.1335 0.0 14.2739 0.0 -25.0214 -10.6051 -42.3218 0.0 0.0 0.0 0.0 0.0 0.0 2.6685 -7.52515 0.295051 0.0 5.61241 0.0 -15.3723 1.9960003 7.39235 0.0 -29.7918 0.0 8.39681 -7.79448 5.88873 0.0 7.1066 0.0 12.0416 6.3664904 -19.4715 0.0 -31.1323 0.0 
  1.57375 3.833280029296875 9.398070068359376 -153.492 79.3199 517.466 1.10691 -9.1902 -1.35381 5.98288 -6.4248 -0.936203 -9.12333 77.8063 358.849 61.4452 -75.2597 763.144 -113.0819 -10.1289 -14.3893 11.2952 12.0033 -25.5516 0.0 5.07191 0.0 26.9085 -6.88182 24.3778 0.0 0.0 0.0 0.0 0.0 0.0 108.9592 -4.35376 -353.461 -7.07135 -1.95359 65.2986 0.0 14.205 0.0 -25.1215 -10.7957 -42.5557 0.0 0.0 0.0 0.0 0.0 0.0 2.64131 -7.44182 0.146542 0.0 5.61825 0.0 -15.3515 1.9321003 7.48563 0.0 -29.6982 0.0 8.39172 -7.65901 5.94057 0.0 7.03754 0.0 12.0487 6.30929 -19.6356 0.0 -30.9889 0.0 
  1.5797300720214844 3.8246200561523436 9.3977001953125 -153.271 79.3498 517.336 1.08232 -9.34319 -1.42006 5.9455 -6.35055 -1.00255 -8.51751 78.0861 358.141 61.5461 -75.2354 763.341 -113.126 -10.1326 -14.4182 11.2855 12.0692 -25.6345 0.0 5.03103 0.0 26.8693 -6.94439 24.4421 0.0 0.0 0.0 0.0 0.0 0.0 108.9731 -4.46618 -353.262 -7.09023 -1.97086 65.1919 0.0 14.1515 0.0 -25.4758 -10.8707 -43.6294 0.0 0.0 0.0 0.0 0.0 0.0 2.63151 -7.41663 0.322653 0.0 5.7279 0.0 -15.3106 1.9266996 7.2399 0.0 -29.7532 0.0 8.3818 -7.56959 5.88588 0.0 7.05497 0.0 12.0624 6.2485104 -19.7066 0.0 -30.9584 0.0 
  1.5856399536132812 3.817149963378906 9.397009887695312 -153.1 79.3975 517.177 1.04175 -9.43255 -1.4671 5.95066 -6.34192 -1.04137 -8.18312 78.341 357.733 61.559 -75.2267 763.491 -113.202805 -10.1694 -14.3717 11.3252 12.0976 -25.728 0.0 5.02338 0.0 26.7404 -6.97 24.4169 0.0 0.0 0.0 0.0 0.0 0.0 108.995804 -4.50075 -353.114 -7.15191 -2.00801 65.2867 0.0 14.154 0.0 -25.5654 -11.0726 -43.9979 0.0 0.0 0.0 0.0 0.0 0.0 2.60822 -7.32708 0.333842 0.0 5.75469 0.0 -15.3172 1.8709002 7.20612 0.0 -29.6767 0.0 8.3568 -7.45647 5.75876 0.0 7.03382 0.0 12.0428 6.2237196 -19.6485 0.0 -30.9432 0.0 
